<svg width="1025" height="829" viewBox="0 0 1025 829" fill="none" xmlns="http://www.w3.org/2000/svg">
<g opacity="0.7">
<path opacity="0.11" d="M252.834 638.641C253.52 638.196 253.715 637.279 253.27 636.593C252.825 635.907 251.908 635.712 251.222 636.157C250.536 636.602 250.341 637.519 250.786 638.205C251.232 638.891 252.148 639.086 252.834 638.641Z" fill="white"/>
<path d="M261.294 642.85C261.808 642.516 261.955 641.829 261.621 641.314C261.287 640.8 260.6 640.654 260.085 640.988C259.571 641.321 259.425 642.009 259.759 642.523C260.092 643.037 260.78 643.184 261.294 642.85Z" fill="white"/>
<path d="M273.323 616.524C273.838 616.19 273.984 615.503 273.65 614.988C273.316 614.474 272.629 614.328 272.115 614.661C271.6 614.995 271.454 615.683 271.788 616.197C272.122 616.711 272.809 616.857 273.323 616.524Z" fill="white"/>
<path d="M219.755 649.52C220.269 649.186 220.416 648.499 220.082 647.984C219.748 647.47 219.061 647.324 218.546 647.657C218.032 647.991 217.886 648.679 218.22 649.193C218.553 649.707 219.241 649.854 219.755 649.52Z" fill="white"/>
<path opacity="0.11" d="M198.694 684.358C199.38 683.912 199.575 682.996 199.13 682.31C198.684 681.624 197.768 681.429 197.082 681.874C196.396 682.319 196.201 683.236 196.646 683.922C197.091 684.607 198.008 684.803 198.694 684.358Z" fill="white"/>
<path d="M178.043 678.354C178.386 678.131 178.483 677.673 178.261 677.331C178.038 676.988 177.58 676.891 177.238 677.113C176.895 677.335 176.797 677.793 177.02 678.136C177.242 678.479 177.7 678.576 178.043 678.354Z" fill="white"/>
<path d="M266.676 664.057C267.018 663.835 267.116 663.377 266.893 663.034C266.671 662.691 266.213 662.594 265.87 662.816C265.528 663.038 265.43 663.497 265.653 663.839C265.875 664.182 266.333 664.279 266.676 664.057Z" fill="white"/>
<path d="M401.998 576.244C402.341 576.022 402.438 575.564 402.216 575.221C401.993 574.879 401.535 574.781 401.193 575.004C400.85 575.226 400.753 575.684 400.975 576.027C401.197 576.369 401.655 576.467 401.998 576.244Z" fill="white"/>
<path d="M447.898 498.817C448.241 498.594 448.338 498.136 448.116 497.794C447.894 497.451 447.436 497.354 447.093 497.576C446.75 497.798 446.653 498.256 446.875 498.599C447.098 498.942 447.556 499.039 447.898 498.817Z" fill="white"/>
<path d="M501.517 528.418C501.86 528.196 501.958 527.738 501.735 527.395C501.513 527.053 501.055 526.955 500.712 527.177C500.37 527.4 500.272 527.858 500.494 528.2C500.717 528.543 501.175 528.641 501.517 528.418Z" fill="white"/>
<path d="M49.9062 782.678C50.2488 782.456 50.3463 781.998 50.124 781.655C49.9016 781.312 49.4435 781.215 49.1009 781.437C48.7582 781.66 48.6608 782.118 48.8831 782.46C49.1055 782.803 49.5635 782.9 49.9062 782.678Z" fill="white"/>
<path opacity="0.11" d="M18.8495 755.2C19.1922 754.977 19.2897 754.519 19.0673 754.176C18.8449 753.834 18.3869 753.736 18.0443 753.959C17.7016 754.181 17.6041 754.639 17.8264 754.982C18.0488 755.324 18.5069 755.422 18.8495 755.2Z" fill="white"/>
<path opacity="0.11" d="M1.42565 786.797C1.7683 786.575 1.86583 786.117 1.64346 785.774C1.42109 785.431 0.963075 785.334 0.620424 785.556C0.277773 785.779 0.180247 786.237 0.402614 786.579C0.624981 786.922 1.083 787.02 1.42565 786.797Z" fill="white"/>
<path opacity="0.11" d="M46.0761 810.748C46.4187 810.526 46.5162 810.068 46.2938 809.725C46.0715 809.383 45.6135 809.285 45.2708 809.508C44.9282 809.73 44.8306 810.188 45.053 810.531C45.2754 810.873 45.7334 810.971 46.0761 810.748Z" fill="white"/>
<path opacity="0.11" d="M177.687 690.049C178.03 689.827 178.128 689.369 177.905 689.026C177.683 688.683 177.225 688.586 176.882 688.808C176.539 689.031 176.442 689.489 176.664 689.831C176.887 690.174 177.345 690.271 177.687 690.049Z" fill="white"/>
<path opacity="0.11" d="M279.945 687.209C280.288 686.987 280.385 686.529 280.163 686.186C279.941 685.844 279.483 685.746 279.14 685.968C278.797 686.191 278.7 686.649 278.922 686.991C279.145 687.334 279.603 687.432 279.945 687.209Z" fill="white"/>
<path opacity="0.11" d="M395.088 603.66C395.43 603.438 395.528 602.98 395.306 602.637C395.083 602.295 394.625 602.197 394.283 602.42C393.94 602.642 393.842 603.1 394.065 603.443C394.287 603.785 394.745 603.883 395.088 603.66Z" fill="white"/>
<path opacity="0.3" d="M68.3925 748.629C68.7351 748.407 68.8327 747.949 68.6103 747.606C68.3879 747.264 67.9299 747.166 67.5872 747.388C67.2446 747.611 67.1471 748.069 67.3695 748.411C67.5918 748.754 68.0498 748.852 68.3925 748.629Z" fill="white"/>
<path d="M189.402 622.463C189.745 622.241 189.842 621.783 189.62 621.44C189.398 621.097 188.94 621 188.597 621.222C188.254 621.445 188.157 621.903 188.379 622.245C188.602 622.588 189.06 622.686 189.402 622.463Z" fill="white"/>
<path d="M284.187 559.19C284.53 558.967 284.628 558.509 284.405 558.167C284.183 557.824 283.725 557.727 283.382 557.949C283.039 558.171 282.942 558.629 283.164 558.972C283.387 559.315 283.845 559.412 284.187 559.19Z" fill="white"/>
<path d="M184.254 706.961C184.596 706.739 184.694 706.281 184.472 705.938C184.249 705.596 183.791 705.498 183.449 705.72C183.106 705.943 183.008 706.401 183.231 706.743C183.453 707.086 183.911 707.184 184.254 706.961Z" fill="white"/>
<path opacity="0.3" d="M140.803 735.16C141.145 734.938 141.243 734.48 141.02 734.137C140.798 733.795 140.34 733.697 139.997 733.92C139.655 734.142 139.557 734.6 139.78 734.943C140.002 735.285 140.46 735.383 140.803 735.16Z" fill="white"/>
<path opacity="0.11" d="M64.9374 729.702C65.2801 729.479 65.3776 729.021 65.1552 728.678C64.9329 728.336 64.4748 728.238 64.1321 728.461C63.7895 728.683 63.692 729.141 63.9144 729.484C64.1367 729.826 64.5948 729.924 64.9374 729.702Z" fill="white"/>
<path opacity="0.3" d="M210.252 630.108C210.595 629.885 210.692 629.427 210.47 629.085C210.247 628.742 209.789 628.645 209.447 628.867C209.104 629.089 209.006 629.547 209.229 629.89C209.451 630.233 209.909 630.33 210.252 630.108Z" fill="white"/>
<path opacity="0.3" d="M202.465 711.907C202.807 711.684 202.905 711.226 202.683 710.883C202.46 710.541 202.002 710.443 201.659 710.666C201.317 710.888 201.219 711.346 201.442 711.689C201.664 712.031 202.122 712.129 202.465 711.907Z" fill="white"/>
<path opacity="0.3" d="M131.383 766.854C131.725 766.631 131.823 766.173 131.6 765.831C131.378 765.488 130.92 765.391 130.577 765.613C130.235 765.835 130.137 766.293 130.36 766.636C130.582 766.979 131.04 767.076 131.383 766.854Z" fill="white"/>
<path opacity="0.3" d="M86.3964 736.95C86.739 736.727 86.8366 736.269 86.6142 735.927C86.3918 735.584 85.9338 735.486 85.5911 735.709C85.2485 735.931 85.151 736.389 85.3734 736.732C85.5957 737.074 86.0537 737.172 86.3964 736.95Z" fill="white"/>
<path opacity="0.3" d="M471.267 484.537C471.61 484.315 471.708 483.857 471.485 483.514C471.263 483.172 470.805 483.074 470.462 483.297C470.12 483.519 470.022 483.977 470.244 484.32C470.467 484.662 470.925 484.76 471.267 484.537Z" fill="white"/>
<path opacity="0.11" d="M354.816 523.938C355.159 523.715 355.256 523.257 355.034 522.915C354.812 522.572 354.354 522.475 354.011 522.697C353.668 522.919 353.571 523.377 353.793 523.72C354.016 524.063 354.474 524.16 354.816 523.938Z" fill="white"/>
<path opacity="0.11" d="M471.828 522.1C472.171 521.878 472.268 521.42 472.046 521.077C471.823 520.734 471.365 520.637 471.023 520.859C470.68 521.081 470.583 521.539 470.805 521.882C471.027 522.225 471.485 522.322 471.828 522.1Z" fill="white"/>
<path opacity="0.3" d="M318.412 629.602C319.098 629.157 319.294 628.24 318.848 627.554C318.403 626.868 317.486 626.673 316.801 627.118C316.115 627.563 315.919 628.48 316.365 629.166C316.81 629.852 317.727 630.047 318.412 629.602Z" fill="white"/>
<path opacity="0.11" d="M342.953 587.215C343.639 586.77 343.834 585.853 343.389 585.167C342.944 584.481 342.027 584.286 341.342 584.731C340.656 585.176 340.46 586.093 340.906 586.779C341.351 587.465 342.268 587.66 342.953 587.215Z" fill="white"/>
<path d="M328.546 565.69C329.06 565.356 329.207 564.669 328.873 564.154C328.539 563.64 327.852 563.494 327.337 563.827C326.823 564.161 326.677 564.849 327.011 565.363C327.344 565.877 328.032 566.023 328.546 565.69Z" fill="white"/>
<path d="M328.017 658.66C328.531 658.327 328.677 657.639 328.344 657.125C328.01 656.611 327.322 656.464 326.808 656.798C326.294 657.132 326.147 657.819 326.481 658.333C326.815 658.848 327.502 658.994 328.017 658.66Z" fill="white"/>
<path d="M542.148 537.34C542.662 537.006 542.808 536.319 542.474 535.805C542.141 535.29 541.453 535.144 540.939 535.478C540.425 535.811 540.278 536.499 540.612 537.013C540.946 537.527 541.633 537.674 542.148 537.34Z" fill="white"/>
<path d="M132.452 788.213C132.966 787.879 133.113 787.192 132.779 786.678C132.445 786.163 131.758 786.017 131.244 786.351C130.729 786.685 130.583 787.372 130.917 787.886C131.251 788.4 131.938 788.547 132.452 788.213Z" fill="white"/>
<path d="M40.6359 827.51C41.1501 827.176 41.2964 826.489 40.9627 825.975C40.629 825.46 39.9415 825.314 39.4273 825.648C38.913 825.981 38.7666 826.669 39.1004 827.183C39.4341 827.697 40.1216 827.844 40.6359 827.51Z" fill="white"/>
<path d="M13.9698 809.532C14.4841 809.198 14.6305 808.51 14.2967 807.996C13.963 807.482 13.2755 807.335 12.7612 807.669C12.247 808.003 12.1007 808.69 12.4344 809.205C12.7681 809.719 13.4556 809.865 13.9698 809.532Z" fill="white"/>
<path d="M306.812 597.44C307.326 597.106 307.472 596.419 307.139 595.904C306.805 595.39 306.117 595.244 305.603 595.577C305.089 595.911 304.942 596.599 305.276 597.113C305.61 597.627 306.297 597.773 306.812 597.44Z" fill="white"/>
<path d="M228.614 713.461C229.129 713.127 229.275 712.44 228.941 711.926C228.608 711.411 227.92 711.265 227.406 711.599C226.892 711.933 226.745 712.62 227.079 713.134C227.413 713.649 228.1 713.795 228.614 713.461Z" fill="white"/>
<path d="M402.357 638.645C402.871 638.311 403.017 637.624 402.683 637.109C402.35 636.595 401.662 636.449 401.148 636.782C400.634 637.116 400.487 637.804 400.821 638.318C401.155 638.832 401.842 638.978 402.357 638.645Z" fill="white"/>
<path d="M539.448 489.688C539.963 489.354 540.109 488.667 539.775 488.152C539.441 487.638 538.754 487.492 538.24 487.825C537.726 488.159 537.579 488.847 537.913 489.361C538.247 489.875 538.934 490.021 539.448 489.688Z" fill="white"/>
<path d="M532.194 445.883C532.709 445.549 532.855 444.862 532.521 444.348C532.188 443.833 531.5 443.687 530.986 444.021C530.472 444.354 530.325 445.042 530.659 445.556C530.993 446.07 531.68 446.217 532.194 445.883Z" fill="white"/>
<path opacity="0.3" d="M380.162 533.078C380.848 532.633 381.043 531.716 380.598 531.03C380.153 530.344 379.236 530.149 378.551 530.594C377.865 531.04 377.669 531.956 378.115 532.642C378.56 533.328 379.477 533.523 380.162 533.078Z" fill="white"/>
<path d="M351.557 489.01C352.243 488.565 352.438 487.648 351.993 486.962C351.548 486.276 350.631 486.081 349.945 486.526C349.259 486.971 349.064 487.888 349.509 488.574C349.954 489.26 350.871 489.455 351.557 489.01Z" fill="white"/>
<path d="M420.991 525.989C421.506 525.655 421.652 524.967 421.318 524.453C420.984 523.939 420.297 523.792 419.783 524.126C419.268 524.46 419.122 525.147 419.456 525.662C419.79 526.176 420.477 526.322 420.991 525.989Z" fill="white"/>
<path opacity="0.3" d="M435.385 482.244C436.071 481.799 436.266 480.882 435.821 480.196C435.376 479.511 434.459 479.315 433.773 479.76C433.087 480.206 432.892 481.122 433.337 481.808C433.782 482.494 434.699 482.689 435.385 482.244Z" fill="white"/>
<path opacity="0.3" d="M525.436 486.436C526.122 485.991 526.317 485.074 525.872 484.388C525.427 483.702 524.51 483.507 523.824 483.952C523.138 484.397 522.943 485.314 523.388 486C523.833 486.686 524.75 486.881 525.436 486.436Z" fill="white"/>
<path opacity="0.3" d="M453.616 534.807C454.301 534.362 454.497 533.445 454.051 532.759C453.606 532.073 452.69 531.878 452.004 532.323C451.318 532.768 451.123 533.685 451.568 534.371C452.013 535.057 452.93 535.252 453.616 534.807Z" fill="white"/>
<path opacity="0.3" d="M104.172 776.574C104.858 776.129 105.053 775.212 104.608 774.526C104.163 773.841 103.246 773.645 102.56 774.091C101.874 774.536 101.679 775.452 102.124 776.138C102.569 776.824 103.486 777.019 104.172 776.574Z" fill="white"/>
<path opacity="0.3" d="M31.7327 775.065C32.4186 774.619 32.6138 773.703 32.1687 773.017C31.7235 772.331 30.8067 772.136 30.1208 772.581C29.4349 773.026 29.2397 773.943 29.6848 774.629C30.13 775.314 31.0468 775.51 31.7327 775.065Z" fill="white"/>
<path opacity="0.11" d="M487.903 484.33C488.589 483.885 488.784 482.968 488.339 482.282C487.893 481.596 486.977 481.401 486.291 481.846C485.605 482.291 485.41 483.208 485.855 483.894C486.3 484.58 487.217 484.775 487.903 484.33Z" fill="white"/>
<path opacity="0.3" d="M106.801 696.358C107.487 695.912 107.682 694.996 107.237 694.31C106.792 693.624 105.875 693.429 105.189 693.874C104.503 694.319 104.308 695.236 104.753 695.922C105.198 696.607 106.115 696.803 106.801 696.358Z" fill="white"/>
<path opacity="0.11" d="M81.9847 694.82C82.6706 694.375 82.8657 693.458 82.4206 692.773C81.9755 692.087 81.0587 691.892 80.3728 692.337C79.6869 692.782 79.4917 693.699 79.9368 694.384C80.3819 695.07 81.2988 695.266 81.9847 694.82Z" fill="white"/>
<path opacity="0.3" d="M102.805 737.768C103.491 737.323 103.686 736.406 103.241 735.72C102.796 735.034 101.879 734.839 101.193 735.284C100.507 735.729 100.312 736.646 100.757 737.332C101.202 738.018 102.119 738.213 102.805 737.768Z" fill="white"/>
<path d="M141.191 711.971C141.705 711.637 141.851 710.95 141.517 710.435C141.184 709.921 140.496 709.775 139.982 710.109C139.468 710.442 139.321 711.13 139.655 711.644C139.989 712.158 140.676 712.305 141.191 711.971Z" fill="white"/>
<path opacity="0.11" d="M344.479 309.783C345.165 309.338 345.36 308.421 344.915 307.736C344.47 307.05 343.553 306.854 342.867 307.3C342.181 307.745 341.986 308.662 342.431 309.347C342.876 310.033 343.793 310.228 344.479 309.783Z" fill="white"/>
<path d="M352.941 313.994C353.455 313.661 353.601 312.973 353.267 312.459C352.934 311.945 352.246 311.798 351.732 312.132C351.218 312.466 351.071 313.153 351.405 313.668C351.739 314.182 352.426 314.328 352.941 313.994Z" fill="white"/>
<path d="M364.97 287.666C365.484 287.332 365.63 286.645 365.297 286.131C364.963 285.617 364.276 285.47 363.761 285.804C363.247 286.138 363.101 286.825 363.434 287.339C363.768 287.854 364.456 288 364.97 287.666Z" fill="white"/>
<path d="M311.398 320.662C311.912 320.329 312.058 319.641 311.724 319.127C311.391 318.613 310.703 318.466 310.189 318.8C309.675 319.134 309.528 319.821 309.862 320.335C310.196 320.85 310.883 320.996 311.398 320.662Z" fill="white"/>
<path opacity="0.11" d="M290.338 355.5C291.024 355.055 291.219 354.138 290.774 353.452C290.329 352.766 289.412 352.571 288.726 353.016C288.04 353.461 287.845 354.378 288.29 355.064C288.735 355.75 289.652 355.945 290.338 355.5Z" fill="white"/>
<path d="M269.687 349.498C270.03 349.276 270.128 348.818 269.905 348.475C269.683 348.133 269.225 348.035 268.882 348.258C268.539 348.48 268.442 348.938 268.664 349.281C268.887 349.623 269.345 349.721 269.687 349.498Z" fill="white"/>
<path d="M358.32 335.2C358.663 334.977 358.76 334.519 358.538 334.176C358.316 333.834 357.858 333.736 357.515 333.959C357.172 334.181 357.075 334.639 357.297 334.982C357.52 335.324 357.978 335.422 358.32 335.2Z" fill="white"/>
<path d="M493.642 247.389C493.985 247.167 494.083 246.709 493.86 246.366C493.638 246.023 493.18 245.926 492.837 246.148C492.495 246.371 492.397 246.829 492.619 247.171C492.842 247.514 493.3 247.611 493.642 247.389Z" fill="white"/>
<path d="M539.545 169.961C539.887 169.739 539.985 169.281 539.763 168.938C539.54 168.596 539.082 168.498 538.74 168.72C538.397 168.943 538.299 169.401 538.522 169.743C538.744 170.086 539.202 170.184 539.545 169.961Z" fill="white"/>
<path d="M593.164 199.565C593.507 199.342 593.604 198.884 593.382 198.542C593.159 198.199 592.701 198.102 592.359 198.324C592.016 198.546 591.919 199.004 592.141 199.347C592.363 199.69 592.821 199.787 593.164 199.565Z" fill="white"/>
<path d="M141.551 453.821C141.893 453.598 141.991 453.14 141.768 452.798C141.546 452.455 141.088 452.357 140.745 452.58C140.403 452.802 140.305 453.26 140.528 453.603C140.75 453.946 141.208 454.043 141.551 453.821Z" fill="white"/>
<path opacity="0.11" d="M110.494 426.342C110.837 426.12 110.934 425.662 110.712 425.319C110.489 424.976 110.031 424.879 109.689 425.101C109.346 425.324 109.249 425.782 109.471 426.124C109.693 426.467 110.151 426.564 110.494 426.342Z" fill="white"/>
<path opacity="0.11" d="M93.0702 457.94C93.4129 457.717 93.5104 457.259 93.288 456.917C93.0657 456.574 92.6076 456.477 92.265 456.699C91.9223 456.921 91.8248 457.379 92.0472 457.722C92.2695 458.065 92.7276 458.162 93.0702 457.94Z" fill="white"/>
<path opacity="0.11" d="M137.723 481.891C138.065 481.669 138.163 481.211 137.94 480.868C137.718 480.525 137.26 480.428 136.917 480.65C136.575 480.872 136.477 481.331 136.7 481.673C136.922 482.016 137.38 482.113 137.723 481.891Z" fill="white"/>
<path opacity="0.11" d="M269.334 361.192C269.677 360.969 269.774 360.511 269.552 360.169C269.329 359.826 268.871 359.729 268.529 359.951C268.186 360.173 268.088 360.631 268.311 360.974C268.533 361.317 268.991 361.414 269.334 361.192Z" fill="white"/>
<path opacity="0.11" d="M371.59 358.352C371.932 358.129 372.03 357.671 371.808 357.329C371.585 356.986 371.127 356.889 370.784 357.111C370.442 357.333 370.344 357.791 370.567 358.134C370.789 358.477 371.247 358.574 371.59 358.352Z" fill="white"/>
<path opacity="0.11" d="M486.732 274.803C487.075 274.581 487.173 274.123 486.95 273.78C486.728 273.437 486.27 273.34 485.927 273.562C485.584 273.785 485.487 274.243 485.709 274.585C485.932 274.928 486.39 275.025 486.732 274.803Z" fill="white"/>
<path opacity="0.3" d="M160.039 419.772C160.382 419.549 160.479 419.091 160.257 418.749C160.034 418.406 159.576 418.309 159.234 418.531C158.891 418.753 158.794 419.211 159.016 419.554C159.238 419.897 159.696 419.994 160.039 419.772Z" fill="white"/>
<path d="M281.047 293.606C281.389 293.383 281.487 292.925 281.265 292.583C281.042 292.24 280.584 292.143 280.242 292.365C279.899 292.587 279.801 293.045 280.024 293.388C280.246 293.731 280.704 293.828 281.047 293.606Z" fill="white"/>
<path d="M375.832 230.332C376.175 230.11 376.272 229.652 376.05 229.309C375.827 228.967 375.369 228.869 375.027 229.092C374.684 229.314 374.587 229.772 374.809 230.115C375.031 230.457 375.489 230.555 375.832 230.332Z" fill="white"/>
<path d="M275.898 378.104C276.241 377.881 276.338 377.423 276.116 377.081C275.894 376.738 275.436 376.641 275.093 376.863C274.75 377.085 274.653 377.543 274.875 377.886C275.098 378.229 275.556 378.326 275.898 378.104Z" fill="white"/>
<path opacity="0.3" d="M232.449 406.303C232.792 406.081 232.889 405.623 232.667 405.28C232.445 404.937 231.987 404.84 231.644 405.062C231.301 405.285 231.204 405.743 231.426 406.085C231.648 406.428 232.106 406.525 232.449 406.303Z" fill="white"/>
<path opacity="0.11" d="M156.582 400.846C156.925 400.624 157.022 400.166 156.8 399.823C156.577 399.48 156.119 399.383 155.777 399.605C155.434 399.828 155.337 400.286 155.559 400.628C155.781 400.971 156.239 401.068 156.582 400.846Z" fill="white"/>
<path opacity="0.3" d="M301.896 301.25C302.239 301.028 302.337 300.57 302.114 300.227C301.892 299.885 301.434 299.787 301.091 300.009C300.748 300.232 300.651 300.69 300.873 301.033C301.096 301.375 301.554 301.473 301.896 301.25Z" fill="white"/>
<path opacity="0.3" d="M294.109 383.049C294.452 382.827 294.549 382.369 294.327 382.026C294.105 381.683 293.647 381.586 293.304 381.808C292.961 382.031 292.864 382.489 293.086 382.831C293.309 383.174 293.767 383.272 294.109 383.049Z" fill="white"/>
<path opacity="0.3" d="M223.027 437.998C223.37 437.776 223.467 437.318 223.245 436.975C223.023 436.633 222.565 436.535 222.222 436.758C221.879 436.98 221.782 437.438 222.004 437.781C222.227 438.123 222.685 438.221 223.027 437.998Z" fill="white"/>
<path opacity="0.3" d="M178.043 408.092C178.386 407.87 178.483 407.412 178.261 407.069C178.038 406.726 177.58 406.629 177.238 406.851C176.895 407.074 176.797 407.532 177.02 407.874C177.242 408.217 177.7 408.315 178.043 408.092Z" fill="white"/>
<path opacity="0.3" d="M562.914 155.68C563.257 155.458 563.354 155 563.132 154.657C562.909 154.314 562.451 154.217 562.109 154.439C561.766 154.662 561.669 155.12 561.891 155.462C562.113 155.805 562.571 155.902 562.914 155.68Z" fill="white"/>
<path opacity="0.11" d="M446.461 195.082C446.803 194.86 446.901 194.402 446.679 194.059C446.456 193.717 445.998 193.619 445.656 193.842C445.313 194.064 445.215 194.522 445.438 194.865C445.66 195.207 446.118 195.305 446.461 195.082Z" fill="white"/>
<path opacity="0.11" d="M563.475 193.244C563.817 193.022 563.915 192.564 563.692 192.221C563.47 191.879 563.012 191.781 562.669 192.004C562.327 192.226 562.229 192.684 562.451 193.027C562.674 193.369 563.132 193.467 563.475 193.244Z" fill="white"/>
<path opacity="0.3" d="M410.057 300.746C410.743 300.301 410.938 299.384 410.493 298.698C410.048 298.013 409.131 297.817 408.445 298.262C407.759 298.708 407.564 299.624 408.009 300.31C408.454 300.996 409.371 301.191 410.057 300.746Z" fill="white"/>
<path opacity="0.11" d="M434.598 258.358C435.284 257.912 435.479 256.996 435.034 256.31C434.589 255.624 433.672 255.429 432.986 255.874C432.3 256.319 432.105 257.236 432.55 257.922C432.995 258.607 433.912 258.803 434.598 258.358Z" fill="white"/>
<path d="M420.194 236.832C420.709 236.499 420.855 235.811 420.521 235.297C420.188 234.783 419.5 234.636 418.986 234.97C418.472 235.304 418.325 235.991 418.659 236.505C418.993 237.02 419.68 237.166 420.194 236.832Z" fill="white"/>
<path d="M419.663 329.803C420.177 329.469 420.324 328.782 419.99 328.267C419.656 327.753 418.969 327.607 418.455 327.941C417.94 328.274 417.794 328.962 418.128 329.476C418.461 329.99 419.149 330.137 419.663 329.803Z" fill="white"/>
<path d="M633.79 208.481C634.304 208.147 634.451 207.459 634.117 206.945C633.783 206.431 633.096 206.285 632.582 206.618C632.067 206.952 631.921 207.64 632.255 208.154C632.588 208.668 633.276 208.814 633.79 208.481Z" fill="white"/>
<path d="M224.097 459.356C224.611 459.022 224.757 458.335 224.424 457.82C224.09 457.306 223.402 457.16 222.888 457.493C222.374 457.827 222.228 458.515 222.561 459.029C222.895 459.543 223.583 459.689 224.097 459.356Z" fill="white"/>
<path d="M132.284 498.653C132.799 498.319 132.945 497.631 132.611 497.117C132.277 496.603 131.59 496.457 131.076 496.79C130.561 497.124 130.415 497.811 130.749 498.326C131.083 498.84 131.77 498.986 132.284 498.653Z" fill="white"/>
<path d="M105.616 480.672C106.131 480.338 106.277 479.651 105.943 479.137C105.609 478.622 104.922 478.476 104.408 478.81C103.893 479.144 103.747 479.831 104.081 480.345C104.415 480.86 105.102 481.006 105.616 480.672Z" fill="white"/>
<path d="M398.458 268.584C398.972 268.25 399.119 267.563 398.785 267.049C398.451 266.534 397.764 266.388 397.25 266.722C396.735 267.056 396.589 267.743 396.923 268.257C397.256 268.772 397.944 268.918 398.458 268.584Z" fill="white"/>
<path d="M320.257 384.604C320.771 384.27 320.918 383.583 320.584 383.068C320.25 382.554 319.563 382.408 319.048 382.741C318.534 383.075 318.388 383.763 318.721 384.277C319.055 384.791 319.743 384.937 320.257 384.604Z" fill="white"/>
<path d="M494.003 309.787C494.517 309.454 494.664 308.766 494.33 308.252C493.996 307.738 493.309 307.591 492.794 307.925C492.28 308.259 492.134 308.946 492.468 309.46C492.801 309.975 493.489 310.121 494.003 309.787Z" fill="white"/>
<path d="M631.097 160.83C631.611 160.497 631.757 159.809 631.424 159.295C631.09 158.781 630.402 158.634 629.888 158.968C629.374 159.302 629.228 159.989 629.561 160.503C629.895 161.018 630.582 161.164 631.097 160.83Z" fill="white"/>
<path d="M623.841 117.026C624.355 116.692 624.501 116.004 624.168 115.49C623.834 114.976 623.147 114.83 622.632 115.163C622.118 115.497 621.972 116.184 622.305 116.699C622.639 117.213 623.327 117.359 623.841 117.026Z" fill="white"/>
<path opacity="0.3" d="M471.807 204.219C472.493 203.774 472.688 202.857 472.243 202.171C471.798 201.485 470.881 201.29 470.195 201.735C469.509 202.18 469.314 203.097 469.759 203.783C470.204 204.469 471.121 204.664 471.807 204.219Z" fill="white"/>
<path d="M443.201 160.151C443.887 159.705 444.083 158.789 443.637 158.103C443.192 157.417 442.275 157.222 441.59 157.667C440.904 158.112 440.708 159.029 441.154 159.715C441.599 160.4 442.516 160.596 443.201 160.151Z" fill="white"/>
<path d="M512.636 197.131C513.15 196.797 513.296 196.11 512.963 195.596C512.629 195.081 511.942 194.935 511.427 195.269C510.913 195.602 510.767 196.29 511.1 196.804C511.434 197.318 512.122 197.465 512.636 197.131Z" fill="white"/>
<path opacity="0.3" d="M527.033 153.387C527.719 152.942 527.915 152.025 527.469 151.339C527.024 150.653 526.107 150.458 525.422 150.903C524.736 151.348 524.541 152.265 524.986 152.951C525.431 153.637 526.348 153.832 527.033 153.387Z" fill="white"/>
<path opacity="0.3" d="M617.082 157.578C617.768 157.133 617.963 156.216 617.518 155.53C617.073 154.845 616.156 154.649 615.47 155.094C614.785 155.54 614.589 156.456 615.034 157.142C615.48 157.828 616.396 158.023 617.082 157.578Z" fill="white"/>
<path opacity="0.3" d="M545.262 205.949C545.948 205.504 546.143 204.587 545.698 203.901C545.253 203.216 544.336 203.02 543.65 203.466C542.964 203.911 542.769 204.828 543.214 205.513C543.659 206.199 544.576 206.394 545.262 205.949Z" fill="white"/>
<path opacity="0.3" d="M195.819 447.717C196.505 447.272 196.7 446.355 196.255 445.669C195.809 444.983 194.893 444.788 194.207 445.233C193.521 445.678 193.326 446.595 193.771 447.281C194.216 447.967 195.133 448.162 195.819 447.717Z" fill="white"/>
<path opacity="0.3" d="M123.379 446.207C124.065 445.762 124.26 444.845 123.815 444.159C123.37 443.473 122.453 443.278 121.767 443.723C121.081 444.168 120.886 445.085 121.331 445.771C121.776 446.457 122.693 446.652 123.379 446.207Z" fill="white"/>
<path opacity="0.11" d="M579.547 155.473C580.233 155.028 580.428 154.111 579.983 153.425C579.538 152.739 578.621 152.544 577.935 152.989C577.249 153.434 577.054 154.351 577.499 155.037C577.944 155.723 578.861 155.918 579.547 155.473Z" fill="white"/>
<path opacity="0.3" d="M198.448 367.502C199.133 367.057 199.329 366.14 198.884 365.454C198.438 364.768 197.522 364.573 196.836 365.018C196.15 365.463 195.955 366.38 196.4 367.066C196.845 367.752 197.762 367.947 198.448 367.502Z" fill="white"/>
<path opacity="0.11" d="M173.631 365.963C174.317 365.518 174.512 364.601 174.067 363.915C173.622 363.229 172.705 363.034 172.019 363.479C171.333 363.924 171.138 364.841 171.583 365.527C172.028 366.213 172.945 366.408 173.631 365.963Z" fill="white"/>
<path opacity="0.3" d="M194.45 408.91C195.135 408.465 195.331 407.548 194.885 406.862C194.44 406.177 193.523 405.981 192.838 406.426C192.152 406.872 191.957 407.788 192.402 408.474C192.847 409.16 193.764 409.355 194.45 408.91Z" fill="white"/>
<path d="M232.837 383.114C233.351 382.78 233.498 382.092 233.164 381.578C232.83 381.064 232.143 380.917 231.628 381.251C231.114 381.585 230.968 382.272 231.302 382.787C231.635 383.301 232.323 383.447 232.837 383.114Z" fill="white"/>
<path opacity="0.11" d="M733.989 195.225C734.674 194.78 734.87 193.863 734.424 193.177C733.979 192.491 733.063 192.296 732.377 192.741C731.691 193.186 731.496 194.103 731.941 194.789C732.386 195.475 733.303 195.67 733.989 195.225Z" fill="white"/>
<path d="M742.448 199.436C742.963 199.102 743.109 198.415 742.775 197.9C742.441 197.386 741.754 197.24 741.24 197.573C740.725 197.907 740.579 198.595 740.913 199.109C741.247 199.623 741.934 199.77 742.448 199.436Z" fill="white"/>
<path d="M754.478 173.108C754.992 172.774 755.138 172.086 754.804 171.572C754.471 171.058 753.783 170.912 753.269 171.245C752.755 171.579 752.608 172.267 752.942 172.781C753.276 173.295 753.963 173.441 754.478 173.108Z" fill="white"/>
<path d="M700.907 206.104C701.422 205.77 701.568 205.083 701.234 204.568C700.9 204.054 700.213 203.908 699.699 204.241C699.184 204.575 699.038 205.263 699.372 205.777C699.706 206.291 700.393 206.437 700.907 206.104Z" fill="white"/>
<path opacity="0.11" d="M679.846 240.942C680.532 240.496 680.727 239.58 680.282 238.894C679.837 238.208 678.92 238.013 678.234 238.458C677.548 238.903 677.353 239.82 677.798 240.506C678.243 241.191 679.16 241.387 679.846 240.942Z" fill="white"/>
<path d="M659.195 234.938C659.538 234.715 659.635 234.257 659.413 233.915C659.191 233.572 658.733 233.475 658.39 233.697C658.047 233.919 657.95 234.377 658.172 234.72C658.395 235.063 658.853 235.16 659.195 234.938Z" fill="white"/>
<path d="M747.828 220.643C748.171 220.421 748.268 219.962 748.046 219.62C747.823 219.277 747.365 219.18 747.023 219.402C746.68 219.624 746.583 220.082 746.805 220.425C747.027 220.768 747.485 220.865 747.828 220.643Z" fill="white"/>
<path d="M883.15 132.828C883.493 132.606 883.59 132.148 883.368 131.805C883.146 131.463 882.688 131.365 882.345 131.588C882.002 131.81 881.905 132.268 882.127 132.611C882.35 132.953 882.808 133.051 883.15 132.828Z" fill="white"/>
<path d="M929.051 55.4027C929.393 55.1803 929.491 54.7223 929.268 54.3796C929.046 54.037 928.588 53.9395 928.245 54.1618C927.903 54.3842 927.805 54.8422 928.028 55.1849C928.25 55.5275 928.708 55.6251 929.051 55.4027Z" fill="white"/>
<path d="M982.67 85.0042C983.013 84.7818 983.11 84.3238 982.888 83.9812C982.665 83.6385 982.207 83.541 981.865 83.7634C981.522 83.9857 981.424 84.4438 981.647 84.7864C981.869 85.1291 982.327 85.2266 982.67 85.0042Z" fill="white"/>
<path d="M531.059 339.262C531.401 339.04 531.499 338.582 531.276 338.239C531.054 337.896 530.596 337.799 530.253 338.021C529.911 338.244 529.813 338.702 530.035 339.044C530.258 339.387 530.716 339.484 531.059 339.262Z" fill="white"/>
<path opacity="0.11" d="M500.002 311.784C500.345 311.561 500.442 311.103 500.22 310.76C499.997 310.418 499.539 310.32 499.197 310.543C498.854 310.765 498.756 311.223 498.979 311.566C499.201 311.908 499.659 312.006 500.002 311.784Z" fill="white"/>
<path opacity="0.11" d="M482.578 343.381C482.921 343.159 483.018 342.701 482.796 342.358C482.573 342.015 482.115 341.918 481.773 342.14C481.43 342.363 481.333 342.821 481.555 343.163C481.777 343.506 482.235 343.604 482.578 343.381Z" fill="white"/>
<path opacity="0.11" d="M527.23 367.332C527.573 367.11 527.671 366.652 527.448 366.309C527.226 365.967 526.768 365.869 526.425 366.092C526.082 366.314 525.985 366.772 526.207 367.115C526.43 367.457 526.888 367.555 527.23 367.332Z" fill="white"/>
<path opacity="0.11" d="M658.84 246.633C659.182 246.411 659.28 245.953 659.058 245.61C658.835 245.267 658.377 245.17 658.035 245.392C657.692 245.615 657.594 246.073 657.817 246.415C658.039 246.758 658.497 246.855 658.84 246.633Z" fill="white"/>
<path opacity="0.11" d="M761.088 243.793C761.43 243.571 761.528 243.113 761.306 242.77C761.083 242.428 760.625 242.33 760.283 242.552C759.94 242.775 759.842 243.233 760.065 243.575C760.287 243.918 760.745 244.016 761.088 243.793Z" fill="white"/>
<path opacity="0.11" d="M876.24 160.246C876.583 160.024 876.68 159.566 876.458 159.223C876.236 158.881 875.778 158.783 875.435 159.006C875.092 159.228 874.995 159.686 875.217 160.029C875.439 160.371 875.897 160.469 876.24 160.246Z" fill="white"/>
<path opacity="0.3" d="M549.545 305.213C549.887 304.991 549.985 304.533 549.763 304.19C549.54 303.848 549.082 303.75 548.74 303.972C548.397 304.195 548.299 304.653 548.522 304.995C548.744 305.338 549.202 305.436 549.545 305.213Z" fill="white"/>
<path d="M670.555 179.047C670.897 178.825 670.995 178.367 670.772 178.024C670.55 177.681 670.092 177.584 669.749 177.806C669.407 178.029 669.309 178.487 669.532 178.829C669.754 179.172 670.212 179.27 670.555 179.047Z" fill="white"/>
<path d="M765.34 115.774C765.682 115.551 765.78 115.093 765.557 114.751C765.335 114.408 764.877 114.311 764.534 114.533C764.192 114.755 764.094 115.213 764.317 115.556C764.539 115.899 764.997 115.996 765.34 115.774Z" fill="white"/>
<path d="M665.406 263.547C665.749 263.325 665.846 262.867 665.624 262.524C665.402 262.181 664.944 262.084 664.601 262.306C664.258 262.529 664.161 262.987 664.383 263.329C664.605 263.672 665.064 263.77 665.406 263.547Z" fill="white"/>
<path opacity="0.3" d="M621.957 291.744C622.3 291.522 622.397 291.064 622.175 290.721C621.952 290.379 621.494 290.281 621.152 290.504C620.809 290.726 620.712 291.184 620.934 291.527C621.156 291.869 621.614 291.967 621.957 291.744Z" fill="white"/>
<path opacity="0.11" d="M546.09 286.287C546.432 286.065 546.53 285.607 546.308 285.264C546.085 284.922 545.627 284.824 545.284 285.047C544.942 285.269 544.844 285.727 545.067 286.07C545.289 286.412 545.747 286.51 546.09 286.287Z" fill="white"/>
<path opacity="0.3" d="M691.404 186.694C691.747 186.471 691.844 186.013 691.622 185.671C691.4 185.328 690.942 185.23 690.599 185.453C690.256 185.675 690.159 186.133 690.381 186.476C690.604 186.819 691.062 186.916 691.404 186.694Z" fill="white"/>
<path opacity="0.3" d="M683.617 268.491C683.96 268.268 684.057 267.81 683.835 267.467C683.613 267.125 683.154 267.027 682.812 267.25C682.469 267.472 682.372 267.93 682.594 268.273C682.816 268.615 683.274 268.713 683.617 268.491Z" fill="white"/>
<path opacity="0.3" d="M612.535 323.438C612.878 323.215 612.975 322.757 612.753 322.415C612.531 322.072 612.072 321.975 611.73 322.197C611.387 322.419 611.29 322.877 611.512 323.22C611.734 323.563 612.192 323.66 612.535 323.438Z" fill="white"/>
<path opacity="0.3" d="M567.549 293.535C567.891 293.313 567.989 292.855 567.767 292.512C567.544 292.17 567.086 292.072 566.743 292.295C566.401 292.517 566.303 292.975 566.526 293.318C566.748 293.66 567.206 293.758 567.549 293.535Z" fill="white"/>
<path opacity="0.3" d="M952.42 41.1214C952.763 40.899 952.86 40.441 952.638 40.0984C952.415 39.7557 951.957 39.6582 951.615 39.8805C951.272 40.1029 951.174 40.561 951.397 40.9036C951.619 41.2463 952.077 41.3438 952.42 41.1214Z" fill="white"/>
<path opacity="0.11" d="M835.969 80.5238C836.311 80.3014 836.409 79.8434 836.186 79.5007C835.964 79.1581 835.506 79.0606 835.163 79.2829C834.821 79.5053 834.723 79.9633 834.946 80.306C835.168 80.6486 835.626 80.7462 835.969 80.5238Z" fill="white"/>
<path opacity="0.11" d="M952.982 78.6839C953.325 78.4616 953.422 78.0036 953.2 77.6609C952.978 77.3183 952.52 77.2207 952.177 77.4431C951.834 77.6655 951.737 78.1235 951.959 78.4661C952.182 78.8088 952.64 78.9063 952.982 78.6839Z" fill="white"/>
<path opacity="0.3" d="M799.565 186.188C800.251 185.742 800.446 184.826 800.001 184.14C799.556 183.454 798.639 183.259 797.953 183.704C797.267 184.149 797.072 185.066 797.517 185.752C797.962 186.438 798.879 186.633 799.565 186.188Z" fill="white"/>
<path opacity="0.11" d="M824.106 143.799C824.792 143.354 824.987 142.437 824.542 141.751C824.097 141.065 823.18 140.87 822.494 141.315C821.808 141.76 821.613 142.677 822.058 143.363C822.503 144.049 823.42 144.244 824.106 143.799Z" fill="white"/>
<path d="M809.702 122.276C810.216 121.942 810.363 121.254 810.029 120.74C809.695 120.226 809.008 120.08 808.494 120.413C807.979 120.747 807.833 121.434 808.167 121.949C808.501 122.463 809.188 122.609 809.702 122.276Z" fill="white"/>
<path d="M809.169 215.244C809.683 214.911 809.83 214.223 809.496 213.709C809.162 213.195 808.475 213.048 807.96 213.382C807.446 213.716 807.3 214.403 807.634 214.917C807.967 215.432 808.655 215.578 809.169 215.244Z" fill="white"/>
<path d="M1023.3 93.9241C1023.82 93.5903 1023.96 92.9029 1023.63 92.3886C1023.29 91.8744 1022.61 91.728 1022.09 92.0617C1021.58 92.3955 1021.43 93.0829 1021.77 93.5972C1022.1 94.1115 1022.79 94.2578 1023.3 93.9241Z" fill="white"/>
<path d="M613.605 344.799C614.119 344.465 614.265 343.778 613.931 343.264C613.598 342.749 612.91 342.603 612.396 342.937C611.882 343.27 611.735 343.958 612.069 344.472C612.403 344.986 613.09 345.133 613.605 344.799Z" fill="white"/>
<path d="M521.792 384.096C522.306 383.762 522.453 383.075 522.119 382.56C521.785 382.046 521.098 381.9 520.584 382.234C520.069 382.567 519.923 383.255 520.257 383.769C520.59 384.283 521.278 384.43 521.792 384.096Z" fill="white"/>
<path d="M495.124 366.115C495.638 365.782 495.785 365.094 495.451 364.58C495.117 364.066 494.43 363.919 493.916 364.253C493.401 364.587 493.255 365.274 493.589 365.789C493.922 366.303 494.61 366.449 495.124 366.115Z" fill="white"/>
<path d="M787.966 154.024C788.48 153.69 788.626 153.003 788.293 152.488C787.959 151.974 787.272 151.828 786.757 152.161C786.243 152.495 786.097 153.183 786.43 153.697C786.764 154.211 787.452 154.357 787.966 154.024Z" fill="white"/>
<path d="M709.765 270.047C710.279 269.713 710.425 269.026 710.092 268.512C709.758 267.997 709.07 267.851 708.556 268.185C708.042 268.519 707.896 269.206 708.229 269.72C708.563 270.234 709.25 270.381 709.765 270.047Z" fill="white"/>
<path d="M883.509 195.229C884.023 194.895 884.169 194.208 883.836 193.693C883.502 193.179 882.815 193.033 882.3 193.366C881.786 193.7 881.64 194.388 881.973 194.902C882.307 195.416 882.995 195.562 883.509 195.229Z" fill="white"/>
<path d="M1020.6 46.2737C1021.12 45.9399 1021.27 45.2525 1020.93 44.7382C1020.6 44.224 1019.91 44.0776 1019.4 44.4113C1018.88 44.7451 1018.74 45.4325 1019.07 45.9468C1019.4 46.4611 1020.09 46.6074 1020.6 46.2737Z" fill="white"/>
<path d="M1013.35 2.46704C1013.86 2.1333 1014.01 1.44586 1013.68 0.931596C1013.34 0.417328 1012.65 0.270968 1012.14 0.604708C1011.63 0.938447 1011.48 1.62588 1011.81 2.14015C1012.15 2.65442 1012.83 2.80078 1013.35 2.46704Z" fill="white"/>
<path opacity="0.3" d="M861.305 89.6622C861.991 89.2171 862.186 88.3002 861.741 87.6144C861.296 86.9285 860.379 86.7333 859.693 87.1784C859.007 87.6235 858.812 88.5404 859.257 89.2263C859.702 89.9122 860.619 90.1073 861.305 89.6622Z" fill="white"/>
<path d="M832.709 45.5939C833.395 45.1488 833.59 44.2319 833.145 43.546C832.7 42.8602 831.783 42.665 831.097 43.1101C830.411 43.5552 830.216 44.472 830.661 45.1579C831.107 45.8438 832.023 46.039 832.709 45.5939Z" fill="white"/>
<path d="M902.144 82.5745C902.658 82.2407 902.804 81.5533 902.47 81.039C902.137 80.5247 901.449 80.3784 900.935 80.7121C900.421 81.0459 900.274 81.7333 900.608 82.2476C900.942 82.7618 901.629 82.9082 902.144 82.5745Z" fill="white"/>
<path opacity="0.3" d="M916.539 38.8283C917.225 38.3831 917.42 37.4663 916.975 36.7804C916.53 36.0945 915.613 35.8993 914.927 36.3445C914.242 36.7896 914.046 37.7064 914.491 38.3923C914.937 39.0782 915.853 39.2734 916.539 38.8283Z" fill="white"/>
<path opacity="0.3" d="M1006.59 43.0197C1007.28 42.5746 1007.47 41.6577 1007.03 40.9718C1006.58 40.2859 1005.67 40.0907 1004.98 40.5359C1004.29 40.981 1004.1 41.8978 1004.54 42.5837C1004.99 43.2696 1005.91 43.4648 1006.59 43.0197Z" fill="white"/>
<path opacity="0.3" d="M934.77 91.3908C935.456 90.9456 935.651 90.0288 935.206 89.3429C934.761 88.657 933.844 88.4618 933.158 88.907C932.472 89.3521 932.277 90.2689 932.722 90.9548C933.167 91.6407 934.084 91.8359 934.77 91.3908Z" fill="white"/>
<path opacity="0.3" d="M585.326 333.158C586.012 332.713 586.208 331.796 585.762 331.11C585.317 330.425 584.4 330.229 583.715 330.675C583.029 331.12 582.834 332.037 583.279 332.722C583.724 333.408 584.641 333.603 585.326 333.158Z" fill="white"/>
<path opacity="0.3" d="M512.885 331.651C513.571 331.205 513.766 330.289 513.321 329.603C512.876 328.917 511.959 328.722 511.273 329.167C510.587 329.612 510.392 330.529 510.837 331.215C511.282 331.9 512.199 332.096 512.885 331.651Z" fill="white"/>
<path opacity="0.11" d="M969.055 40.9142C969.741 40.4691 969.936 39.5522 969.491 38.8664C969.046 38.1805 968.129 37.9853 967.443 38.4304C966.757 38.8755 966.562 39.7924 967.007 40.4782C967.452 41.1641 968.369 41.3593 969.055 40.9142Z" fill="white"/>
<path opacity="0.3" d="M587.953 252.943C588.639 252.498 588.834 251.582 588.389 250.896C587.944 250.21 587.027 250.015 586.342 250.46C585.656 250.905 585.46 251.822 585.906 252.508C586.351 253.193 587.268 253.389 587.953 252.943Z" fill="white"/>
<path opacity="0.11" d="M563.137 251.404C563.823 250.959 564.018 250.042 563.573 249.357C563.128 248.671 562.211 248.475 561.525 248.921C560.839 249.366 560.644 250.283 561.089 250.968C561.534 251.654 562.451 251.85 563.137 251.404Z" fill="white"/>
<path opacity="0.3" d="M583.957 294.352C584.643 293.907 584.838 292.99 584.393 292.304C583.948 291.618 583.031 291.423 582.345 291.868C581.66 292.313 581.464 293.23 581.909 293.916C582.355 294.602 583.271 294.797 583.957 294.352Z" fill="white"/>
<path d="M622.343 268.557C622.857 268.223 623.004 267.536 622.67 267.021C622.336 266.507 621.649 266.361 621.134 266.695C620.62 267.028 620.474 267.716 620.807 268.23C621.141 268.744 621.829 268.891 622.343 268.557Z" fill="white"/>
</g>
</svg>
