
<svg width="125" height="29" viewBox="0 0 125 29" fill="none" xmlns="http://www.w3.org/2000/svg">
  <rect width="125" height="29" rx="14.5" fill="#1D1D28"/>
  <path d="M26.056 18V11.86H27.74V18H26.056ZM26.056 11.058V9.36H27.74V11.058H26.056ZM33.6873 18.126C32.9873 18.126 32.3713 17.968 31.8393 17.652C31.3073 17.336 30.8913 16.892 30.5913 16.32C30.2993 15.748 30.1533 15.078 30.1533 14.31C30.1533 13.542 30.2993 12.872 30.5913 12.3C30.8913 11.728 31.3073 11.284 31.8393 10.968C32.3713 10.652 32.9873 10.494 33.6873 10.494C34.3873 10.494 35.0033 10.652 35.5353 10.968C36.0673 11.284 36.4833 11.728 36.7833 12.3C37.0833 12.872 37.2333 13.542 37.2333 14.31C37.2333 15.078 37.0833 15.748 36.7833 16.32C36.4833 16.892 36.0673 17.336 35.5353 17.652C35.0033 17.968 34.3873 18.126 33.6873 18.126ZM33.6873 16.698C34.1953 16.698 34.6113 16.502 34.9353 16.11C35.2593 15.718 35.4213 15.11 35.4213 14.286C35.4213 13.462 35.2593 12.86 34.9353 12.48C34.6113 12.088 34.1953 11.892 33.6873 11.892C33.1793 11.892 32.7633 12.088 32.4393 12.48C32.1153 12.86 31.9533 13.462 31.9533 14.286C31.9533 15.11 32.1153 15.718 32.4393 16.11C32.7633 16.502 33.1793 16.698 33.6873 16.698ZM44.1193 18V14.19C44.1193 13.614 44.0133 13.17 43.8013 12.858C43.5893 12.546 43.2653 12.39 42.8293 12.39C42.5373 12.39 42.2733 12.462 42.0373 12.606C41.8013 12.738 41.6193 12.93 41.4913 13.182C41.3633 13.434 41.2993 13.722 41.2993 14.046V18H39.6153V10.62H41.2093V12.15C41.4133 11.638 41.7193 11.236 42.1273 10.944C42.5353 10.644 43.0373 10.494 43.6333 10.494C44.2293 10.494 44.7193 10.62 45.1033 10.872C45.4953 11.124 45.7873 11.488 45.9793 11.964C46.1793 12.428 46.2793 12.992 46.2793 13.656V18H44.1193ZM48.0599 18V9.36H49.7439V18H48.0599ZM54.9533 18V14.19C54.9533 13.614 54.8473 13.17 54.6353 12.858C54.4233 12.546 54.0993 12.39 53.6633 12.39C53.3713 12.39 53.1073 12.462 52.8713 12.606C52.6353 12.738 52.4533 12.93 52.3253 13.182C52.1973 13.434 52.1333 13.722 52.1333 14.046V18H50.4493V10.62H52.0433V12.15C52.2473 11.638 52.5533 11.236 52.9613 10.944C53.3693 10.644 53.8713 10.494 54.4673 10.494C55.0633 10.494 55.5533 10.62 55.9373 10.872C56.3293 11.124 56.6213 11.488 56.8133 11.964C57.0133 12.428 57.1133 12.992 57.1133 13.656V18H54.9533ZM66.9138 18V16.518C66.7178 16.982 66.4058 17.348 65.9778 17.616C65.5578 17.884 65.0698 18.018 64.5138 18.018C63.9658 18.018 63.4778 17.906 63.0498 17.682C62.6298 17.446 62.2978 17.102 62.0538 16.65C61.8098 16.198 61.6878 15.654 61.6878 15.018V10.62H63.3718V14.454C63.3718 15.03 63.4778 15.474 63.6898 15.786C63.9098 16.098 64.2338 16.254 64.6618 16.254C64.9618 16.254 65.2338 16.186 65.4778 16.05C65.7218 15.902 65.9098 15.702 66.0418 15.45C66.1738 15.198 66.2398 14.904 66.2398 14.568V10.62H67.9238V18H66.9138ZM75.4472 10.62V18H73.8532V16.47C73.6572 16.982 73.3552 17.388 72.9472 17.688C72.5392 17.988 72.0372 18.138 71.4412 18.138C70.8452 18.138 70.3492 18.012 69.9532 17.76C69.5652 17.508 69.2732 17.144 69.0772 16.668C68.8812 16.192 68.7832 15.628 68.7832 14.976V10.62H70.4672V14.454C70.4672 15.03 70.5732 15.474 70.7852 15.786C71.0052 16.098 71.3292 16.254 71.7572 16.254C72.0652 16.254 72.3412 16.182 72.5852 16.038C72.8292 15.894 73.0192 15.696 73.1552 15.444C73.2912 15.192 73.3592 14.904 73.3592 14.58V10.62H75.4472ZM81.8989 18.126C81.2229 18.126 80.6149 17.968 80.0749 17.652C79.5349 17.336 79.1109 16.892 78.8029 16.32C78.5029 15.748 78.3529 15.078 78.3529 14.31C78.3529 13.554 78.5029 12.896 78.8029 12.336C79.1109 11.776 79.5269 11.342 80.0509 11.034C80.5829 10.726 81.1789 10.572 81.8389 10.572C82.4669 10.572 83.0069 10.708 83.4589 10.98C83.9109 11.252 84.2609 11.624 84.5069 12.096V7.98H86.1909V18H84.5969V16.53C84.3589 16.994 84.0169 17.366 83.5709 17.646C83.1329 17.926 82.5749 18.066 81.8989 18.066V18.126ZM82.3389 16.698C82.8549 16.698 83.2709 16.506 83.5869 16.122C83.9029 15.738 84.0609 15.146 84.0609 14.346C84.0609 13.546 83.9029 12.952 83.5869 12.564C83.2709 12.176 82.8589 11.982 82.3509 11.982C81.8429 11.982 81.4309 12.18 81.1149 12.576C80.7989 12.972 80.6409 13.57 80.6409 14.37C80.6409 15.17 80.7989 15.754 81.1149 16.134C81.4309 16.514 81.8389 16.698 82.3389 16.698ZM92.7047 18.126C91.9807 18.126 91.3487 17.968 90.8087 17.652C90.2687 17.336 89.8487 16.892 89.5487 16.32C89.2487 15.748 89.0987 15.078 89.0987 14.31C89.0987 13.556 89.2527 12.892 89.5607 12.318C89.8687 11.744 90.2927 11.298 90.8327 10.98C91.3727 10.662 91.9967 10.504 92.7047 10.504C93.4127 10.504 94.0367 10.662 94.5767 10.98C95.1167 11.298 95.5407 11.744 95.8487 12.318C96.1567 12.892 96.3107 13.556 96.3107 14.31C96.3107 15.078 96.1607 15.748 95.8607 16.32C95.5607 16.892 95.1447 17.336 94.6047 17.652C94.0647 17.968 93.4287 18.126 92.7047 18.126ZM92.7047 16.698C93.2127 16.698 93.6247 16.502 93.9407 16.11C94.2567 15.718 94.4147 15.11 94.4147 14.286C94.4147 13.462 94.2567 12.86 93.9407 12.48C93.6247 12.1 93.2127 11.91 92.7047 11.91C92.1887 11.91 91.7767 12.1 91.4687 12.48C91.1607 12.86 91.0067 13.462 91.0067 14.286C91.0067 15.11 91.1607 15.718 91.4687 16.11C91.7767 16.502 92.1887 16.698 92.7047 16.698ZM101.696 18.126C101.042 18.126 100.458 17.968 99.9424 17.652C99.4264 17.336 99.0224 16.892 98.7304 16.32C98.4384 15.748 98.2924 15.078 98.2924 14.31C98.2924 13.554 98.4464 12.896 98.7544 12.336C99.0624 11.776 99.4784 11.342 100.002 11.034C100.526 10.726 101.106 10.572 101.742 10.572C102.37 10.572 102.91 10.708 103.362 10.98C103.814 11.252 104.164 11.624 104.41 12.096V7.98H106.094V18H104.5V16.53C104.262 16.994 103.92 17.366 103.474 17.646C103.028 17.926 102.414 18.066 101.696 18.066V18.126ZM102.136 16.698C102.652 16.698 103.068 16.506 103.384 16.122C103.7 15.738 103.858 15.146 103.858 14.346C103.858 13.546 103.7 12.952 103.384 12.564C103.068 12.176 102.656 11.982 102.148 11.982C101.64 11.982 101.228 12.18 100.912 12.576C100.596 12.972 100.438 13.57 100.438 14.37C100.438 15.17 100.596 15.754 100.912 16.134C101.232 16.514 101.64 16.698 102.136 16.698Z" fill="white" fill-opacity="0.8"/>
</svg>
