<svg width="305" height="103" viewBox="0 0 305 103" fill="none" xmlns="http://www.w3.org/2000/svg">
<g style="mix-blend-mode:soft-light" opacity="0.5">
<path d="M0 109.424L44.9363 0H55.658L100.279 109.424H84.1965L47.3014 16.8708H52.9776L15.9248 109.424H0ZM21.4433 84.6695V71.7404H78.9934V84.6695H21.4433Z" fill="url(#paint0_linear_695_1131)"/>
<path d="M136.704 111C129.136 111 122.383 109.292 116.444 105.876C110.505 102.46 105.801 97.8081 102.332 91.9217C98.8633 86.0353 97.1289 79.3606 97.1289 71.8975C97.1289 64.4344 98.837 57.9172 102.253 52.0308C105.669 46.1444 110.294 41.4931 116.128 38.0769C121.962 34.6607 128.505 32.9527 135.758 32.9527C142.591 32.9527 148.687 34.5294 154.048 37.6828C159.409 40.8362 163.587 45.1984 166.583 50.7695C169.579 56.3405 171.077 62.6999 171.077 69.8477C171.077 70.8989 171.024 72.0289 170.919 73.2378C170.814 74.4466 170.604 75.7866 170.288 77.2582H107.062V65.4329H162.72L157.517 70.0053C157.517 64.9598 156.624 60.6765 154.837 57.1552C153.05 53.6339 150.527 50.9008 147.268 48.9562C144.01 47.0116 140.068 46.0394 135.443 46.0394C130.818 46.0394 126.351 47.0904 122.672 49.1927C118.993 51.295 116.155 54.2382 114.157 58.0224C112.16 61.8065 111.162 66.2739 111.162 71.4245C111.162 76.5751 112.213 81.2789 114.315 85.2207C116.417 89.1625 119.413 92.2108 123.302 94.3656C127.192 96.5204 131.659 97.5978 136.704 97.5978C140.909 97.5978 144.772 96.862 148.293 95.3904C151.815 93.9188 154.837 91.7116 157.359 88.7684L166.504 98.0709C162.825 102.275 158.41 105.481 153.26 107.689C148.109 109.896 142.591 111 136.704 111Z" fill="url(#paint1_linear_695_1131)"/>
<path d="M178.635 109.423V34.5292H192.825V109.423H178.635ZM192.825 66.8519L187.464 64.3291C187.464 54.7637 189.672 47.143 194.087 41.4669C198.501 35.7907 204.861 32.9526 213.165 32.9526C216.949 32.9526 220.365 33.6096 223.413 34.9235C226.462 36.2375 229.3 38.4186 231.928 41.4669L222.625 51.0848C221.048 49.403 219.314 48.194 217.422 47.4582C215.53 46.7224 213.322 46.3545 210.8 46.3545C205.544 46.3545 201.234 48.0364 197.871 51.4C194.507 54.7637 192.825 59.9144 192.825 66.8519Z" fill="url(#paint2_linear_695_1131)"/>
<path d="M265.669 111C258.417 111 251.847 109.266 245.961 105.797C240.074 102.328 235.397 97.624 231.928 91.6851C228.459 85.7461 226.725 79.0976 226.725 71.7396C226.725 64.3816 228.459 57.9434 231.928 52.1096C235.397 46.2758 240.074 41.6245 245.961 38.1557C251.847 34.687 258.417 32.9526 265.669 32.9526C272.922 32.9526 279.676 34.6606 285.615 38.0768C291.554 41.493 296.258 46.1443 299.727 52.0307C303.195 57.9171 304.93 64.4867 304.93 71.7396C304.93 78.9925 303.195 85.7461 299.727 91.6851C296.258 97.624 291.554 102.328 285.615 105.797C279.676 109.266 273.027 111 265.669 111ZM265.669 97.2825C270.505 97.2825 274.762 96.1788 278.441 93.9714C282.12 91.764 285.01 88.7419 287.113 84.9052C289.215 81.0685 290.266 76.68 290.266 71.7396C290.266 66.7992 289.189 62.5947 287.034 58.8105C284.879 55.0264 281.988 52.057 278.362 49.9022C274.736 47.7473 270.505 46.67 265.669 46.67C260.834 46.67 256.892 47.7473 253.213 49.9022C249.534 52.057 246.644 55.0264 244.542 58.8105C242.439 62.5947 241.388 66.9044 241.388 71.7396C241.388 76.5749 242.439 81.0685 244.542 84.9052C246.644 88.7419 249.534 91.764 253.213 93.9714C256.892 96.1788 261.044 97.2825 265.669 97.2825Z" fill="url(#paint3_linear_695_1131)"/>
</g>
<defs>
<linearGradient id="paint0_linear_695_1131" x1="226.726" y1="32.9532" x2="308.555" y2="36.9578" gradientUnits="userSpaceOnUse">
<stop stop-color="white" stop-opacity="0.9"/>
<stop offset="1" stop-color="white" stop-opacity="0.5"/>
</linearGradient>
<linearGradient id="paint1_linear_695_1131" x1="226.726" y1="32.9532" x2="308.555" y2="36.9578" gradientUnits="userSpaceOnUse">
<stop stop-color="white" stop-opacity="0.9"/>
<stop offset="1" stop-color="white" stop-opacity="0.5"/>
</linearGradient>
<linearGradient id="paint2_linear_695_1131" x1="226.726" y1="32.9532" x2="308.555" y2="36.9578" gradientUnits="userSpaceOnUse">
<stop stop-color="white" stop-opacity="0.9"/>
<stop offset="1" stop-color="white" stop-opacity="0.5"/>
</linearGradient>
<linearGradient id="paint3_linear_695_1131" x1="226.726" y1="32.9532" x2="308.555" y2="36.9578" gradientUnits="userSpaceOnUse">
<stop stop-color="white" stop-opacity="0.9"/>
<stop offset="1" stop-color="white" stop-opacity="0.5"/>
</linearGradient>
</defs>
</svg>
